<?xml version="1.0" encoding="utf-8"?>
<!-- Generator: Adobe Illustrator 16.2.0, SVG Export Plug-In . SVG Version: 6.00 Build 0)  -->
<!DOCTYPE svg PUBLIC "-//W3C//DTD SVG 1.1//EN" "http://www.w3.org/Graphics/SVG/1.1/DTD/svg11.dtd">
<svg version="1.1" id="Layer_1" xmlns="http://www.w3.org/2000/svg" xmlns:xlink="http://www.w3.org/1999/xlink" x="0px" y="0px"
	 width="600px" height="323.783px" viewBox="0 0 600 323.783" enable-background="new 0 0 600 323.783" xml:space="preserve">
<g>
	<g>
		<path fill="#0079C2" d="M223.33,296.232c0-4.359-1.453-7.918-6.465-7.918c-6.966,0-7.017,9.822-7.017,14.583
			c0,7.317,0.402,15.837,7.017,15.837c5.212,0,6.063-4.31,6.465-10.273h4.009c-0.451,8.318-2.505,13.882-10.173,13.882
			c-10.625,0-11.476-10.825-11.476-19.345c0-8.119,1.503-18.292,11.376-18.292c6.815,0,10.273,5.062,10.273,11.526H223.33z"/>
		<path fill="#0079C2" d="M283.779,285.407v29.469c0,1.303-0.05,2.706-0.1,4.008h0.1c0.501-1.653,0.651-2.955,1.454-4.961
			l11.226-28.516h5.813v36.083h-4.008v-28.766c0-1.854,0.05-3.708,0.1-5.512h-0.1c-0.351,2.154-0.752,4.209-1.404,5.862
			l-11.275,28.415h-5.814v-36.083H283.779z"/>
		<path fill="#0079C2" d="M373.846,285.407v3.609h-13.932v11.727h4.761c6.515,0,11.626,2.204,11.626,10.574
			c0,7.166-4.311,10.173-10.825,10.173h-9.571v-36.083H373.846z M359.915,317.883h4.561c4.811,0,7.666-1.453,7.666-6.565
			c0-5.764-3.257-6.967-8.819-6.967h-3.407V317.883z"/>
		<path fill="#0079C2" d="M432.741,285.407v29.469c0,1.303-0.05,2.706-0.101,4.008h0.101c0.501-1.653,0.651-2.955,1.453-4.961
			l11.226-28.516h5.813v36.083h-4.009v-28.766c0-1.854,0.05-3.708,0.1-5.512h-0.1c-0.351,2.154-0.753,4.209-1.403,5.862
			l-11.276,28.415h-5.813v-36.083H432.741z"/>
		<path fill="#0079C2" d="M508.876,321.49h-4.01v-36.083h10.023c6.564,0,10.874,3.058,10.874,10.175
			c0,8.418-5.111,10.623-11.626,10.623h-5.262V321.49z M508.876,302.597h3.908c5.513,0,8.82-0.851,8.82-7.015
			c0-5.112-2.856-6.565-7.668-6.565h-5.061V302.597z"/>
		<path fill="#0079C2" d="M582.405,300.743h4.761c6.516,0,11.627,2.204,11.627,10.574c0,7.166-4.311,10.173-10.825,10.173h-9.572
			v-36.083h4.01V300.743z M582.405,317.883h4.561c4.812,0,7.667-1.453,7.667-6.565c0-5.764-3.258-6.967-8.819-6.967h-3.408V317.883z
			"/>
	</g>
	<g>
		<path fill="#0079C2" d="M206.36,100.008h37.307v12.128h-17.749v85.678H206.36V100.008z"/>
		<path fill="#0079C2" d="M264.788,161.069l3.354-48.937h1.123l3.35,48.937H264.788z M243.133,197.815h19.14l1.814-25.994h9.228
			l1.818,25.994h19.14l-10.201-97.807h-30.739L243.133,197.815z"/>
		<path fill="#0079C2" d="M319.988,163.578v18.419c0,2.508,1.953,3.214,3.071,3.214c1.822,0,3.076-1.538,3.076-3.214v-22.752
			c0-3.072-0.562-6.422-7.826-6.422h-7.96v-10.761h8.239c5.59,0,7.548-1.258,7.548-7.265v-19.447c0-1.68-1.253-3.214-3.076-3.214
			c-1.118,0-3.071,0.701-3.071,3.214v15.953h-19.563v-13.833c0-6.848,0.839-17.462,14.53-17.462h16.218
			c13.703,0,14.535,10.614,14.535,17.462v15.652c0,10.614-7.405,13.549-13.273,13.272v0.978c13.133-0.277,13.273,9.78,13.273,13.272
			v19.703c0,6.844-0.832,17.467-14.535,17.467h-16.218c-13.69,0-14.53-10.624-14.53-17.467v-16.77H319.988z"/>
		<path fill="#0079C2" d="M355.988,100.008h45.278v97.807h-19.554v-85.678h-6.156v85.678h-19.568V100.008z"/>
		<path fill="#0079C2" d="M432.264,153.799v-41.663h2.515c2.097,0,3.637,1.814,3.637,4.884v31.887c0,3.077-1.54,4.891-3.637,4.891
			H432.264z M412.702,197.815h19.563v-33.259h11.176c13.694,0,14.534-10.621,14.534-17.46v-29.625
			c0-6.848-0.84-17.462-14.534-17.462h-30.738V197.815z"/>
		<path fill="#0079C2" d="M493.19,181.997c0,1.677-1.253,3.214-3.07,3.214c-1.122,0-3.083-0.706-3.083-3.214v-66.646
			c0-2.513,1.961-3.214,3.083-3.214c1.817,0,3.07,1.535,3.07,3.214V181.997z M467.475,180.348c0,6.844,0.845,17.467,14.533,17.467
			h16.208c13.696,0,14.534-10.624,14.534-17.467v-62.877c0-6.848-0.838-17.462-14.534-17.462h-16.208
			c-13.688,0-14.533,10.614-14.533,17.462V180.348z"/>
		<path fill="#0079C2" d="M573.693,100.008h25.43v97.807h-19.565v-61.338h-0.698l-10.058,61.338h-15.652l-10.058-61.338h-0.703
			v61.338h-19.562v-97.807h25.426l12.718,68.743L573.693,100.008z"/>
	</g>
	<g>
		<path fill="#0079C2" d="M178.576,59.124c-6.78-29.765-23.82-53.961-26.168-57.925c-3.727,5.558-17.322,26.912-24.229,50.642
			c-7.539,26.451-8.639,49.901-6.043,73.021c2.586,23.083,12.352,46.813,12.352,46.813c5.186,12.455,12.962,25.785,18.018,32.327
			c7.422-9.645,24.48-38.385,29.782-75.939C185.248,107.192,185.378,88.91,178.576,59.124 M152.408,196.592
			c-3.349-6.289-8.544-18.268-9.034-36.767c-0.13-17.907,7.036-33.271,9.132-36.455c1.86,3.184,8.051,16.568,8.779,34.838
			C161.784,176.1,155.857,190.172,152.408,196.592 M176.604,109.658c-0.247,11.36-1.598,23.357-3.335,30.504
			c0.624-12.343-0.858-29.754-3.7-43.359c-2.843-13.609-10.884-36.289-17.291-46.831c-5.927,10.018-13.223,29.665-17.058,46.706
			c-3.843,17.066-3.955,37.685-3.955,43.88c-1.011-5.231-3.57-23.807-2.843-42.51c0.607-15.429,4.212-31.261,6.188-38.551
			c7.538-24.364,16.069-39.906,17.668-42.359c1.598,2.453,12.347,21.62,17.916,41.744C175.733,79.027,176.851,98.29,176.604,109.658
			z"/>
		<path fill="#0079C2" d="M163.943,210.938h-51.711v34.696c0.049-0.051,0.085-0.1,0.135-0.145c12.186-12.182,31.928-12.182,44.11,0
			c12.181,12.189,12.181,31.94,0,44.113c-0.045,0.049-0.099,0.1-0.149,0.149c0,0.014,0,0.014,0,0.014
			c-0.053,0.044-0.129,0.116-0.188,0.16c-12.14,12.062-28.026,18.107-43.907,18.107c-15.94,0-31.893-6.091-44.065-18.237
			c-21.43-21.448-23.981-54.634-7.628-78.858c2.205-3.277,4.738-6.389,7.628-9.266c12.172-12.172,28.125-18.252,44.065-18.252
			v-83.412c-61.265,0-110.96,49.692-110.96,110.929c0,61.28,49.695,110.962,110.96,110.962c31.974,0,60.745-13.523,80.981-35.129
			v-75.833H163.943"/>
	</g>
	<rect x="206.36" y="210.956" fill="#0079C2" width="392.762" height="61.124"/>
	<g>
		<path fill="#FFFFFF" d="M235.16,227.158v5.623h-9.47v24.072h-7.156v-29.695H235.16z"/>
		<path fill="#FFFFFF" d="M249.266,227.158l6.575,29.695h-7.028l-1.076-5.956h-5.459l-0.91,5.956h-7.113l6.452-29.695H249.266z
			 M246.785,245.562l-1.902-13.067h-0.042l-1.862,13.067H246.785z"/>
		<path fill="#FFFFFF" d="M257.295,236.214c0-6.161,3.846-9.718,8.974-9.718c5.667,0,8.85,3.68,8.85,7.859
			c0,3.68-1.198,5.542-4.218,6.864h0.083c3.02,1.116,5.171,2.357,5.171,7.691c0,5.874-3.806,8.644-9.472,8.644
			c-4.425,0-9.387-1.942-9.387-9.594h6.576c0,3.31,0.95,4.26,2.521,4.26c1.861,0,2.606-0.95,2.606-4.26
			c0-2.771-0.869-3.887-3.143-3.887h-1.034v-5.336h1.697c1.033,0,2.151-1.158,2.151-3.266c0-2.234-0.705-3.638-2.4-3.638
			c-1.818,0-2.398,1.321-2.398,4.381H257.295z"/>
		<path fill="#FFFFFF" d="M298.902,234.891v13.319c0,5.914-2.937,9.345-9.636,9.345c-6.616,0-9.635-3.431-9.635-9.345v-13.358
			c0-4.675,2.936-8.355,9.675-8.355C296.049,226.497,298.902,230.261,298.902,234.891z M286.786,234.395v15.054
			c0,1.78,1.239,2.646,2.481,2.646c1.2,0,2.48-0.866,2.48-2.646v-15.054c0-1.693-1.281-2.438-2.48-2.438
			C288.025,231.957,286.786,232.702,286.786,234.395z"/>
		<path fill="#FFFFFF" d="M309.909,256.854h-7.154v-29.695h10.38c4.136,0,8.686,1.488,8.686,9.056c0,7.321-4.467,9.058-8.686,9.058
			h-3.226V256.854z M309.909,239.937h1.282c1.778,0,3.475-0.867,3.475-3.804c0-2.935-1.531-3.638-3.599-3.638h-1.159V239.937z"/>
		<path fill="#FFFFFF" d="M336.918,227.158l6.576,29.695h-7.028l-1.076-5.956h-5.46l-0.908,5.956h-7.115l6.452-29.695H336.918z
			 M334.438,245.562l-1.901-13.067h-0.042l-1.861,13.067H334.438z"/>
		<path fill="#FFFFFF" d="M364.799,245.107v2.77c0,6.743-3.061,9.678-9.678,9.678c-6.576,0-9.677-2.893-9.677-9.718v-12.946
			c0-4.672,2.895-8.395,9.677-8.395c6.701,0,9.678,3.804,9.678,8.437v2.026h-7.155v-2.688c0-1.57-1.488-2.315-2.604-2.315
			c-1.201,0-2.44,0.662-2.44,2.189v14.807c0,2.234,0.949,3.142,2.44,3.142c1.529,0,2.604-0.824,2.604-3.058v-3.929H364.799z"/>
		<path fill="#FFFFFF" d="M387.591,227.158v29.695h-7.155v-24.072h-4.674v24.072h-7.155v-29.695H387.591z"/>
		<path fill="#FFFFFF" d="M398.885,256.854h-7.155v-29.695h10.382c4.135,0,8.686,1.488,8.686,9.056c0,7.321-4.468,9.058-8.686,9.058
			h-3.227V256.854z M398.885,239.937h1.281c1.778,0,3.476-0.867,3.476-3.804c0-2.935-1.53-3.638-3.599-3.638h-1.158V239.937z"/>
		<path fill="#FFFFFF" d="M414.111,227.158h16.627v5.623h-9.472v5.832h8.479v5.625h-8.479v6.99h9.472v5.625h-16.627V227.158z"/>
		<path fill="#FFFFFF" d="M455.679,227.158v24.07h1.529v11.704h-6.948v-6.079h-10.299v6.079h-6.948v-11.704h0.995
			c2.15-3.392,2.771-6.452,2.771-15.592v-8.479H455.679z M448.525,232.781h-4.758v5.583c0,5.709-0.496,9.554-2.274,12.864h7.032
			V232.781z"/>
		<path fill="#FFFFFF" d="M459.859,227.158h16.628v5.623h-9.474v5.832h8.481v5.625h-8.481v6.99h9.474v5.625h-16.628V227.158z"/>
		<path fill="#FFFFFF" d="M501.056,227.158v29.695h-7.158v-24.072h-4.715V243c0,11.248-2.063,14.183-6.904,14.183
			c-1.531,0-2.604-0.329-3.844-0.867v-5.005c0.328,0.166,1.033,0.249,1.733,0.249c1.989,0,2.11-1.199,2.11-10.381v-14.02H501.056z"
			/>
		<path fill="#FFFFFF" d="M504.783,227.158h16.626v5.623h-9.474v5.832h8.481v5.625h-8.481v6.99h9.474v5.625h-16.626V227.158z"/>
		<path fill="#FFFFFF" d="M531.668,238.613h4.675v-11.455h7.15v29.695h-7.15v-12.615h-4.675v12.615h-7.157v-29.695h7.157V238.613z"
			/>
		<path fill="#FFFFFF" d="M554.46,227.158v7.36c0,3.271-0.911,8.024-1.074,11.29h0.04l6.039-18.65h6.82v29.695h-6.82v-6.906
			c0-3.186,0.992-8.024,1.321-11.166h-0.04l-6.161,18.072h-6.95v-29.695H554.46z"/>
		<path fill="#FFFFFF" d="M570.18,227.158h16.626v5.623h-9.471v5.832h8.479v5.625h-8.479v6.99h9.471v5.625H570.18V227.158z"/>
	</g>
</g>
<g>
</g>
<g>
</g>
<g>
</g>
<g>
</g>
<g>
</g>
<g>
</g>
</svg>
